<mxfile host="app.diagrams.net" agent="Mozilla/5.0 (Macintosh; Intel Mac OS X 10.15; rv:136.0) Gecko/20100101 Firefox/136.0" version="26.1.0">
  <diagram id="C5RBs43oDa-KdzZeNtuy" name="Page-1">
    <mxGraphModel dx="1058" dy="2310" grid="1" gridSize="10" guides="1" tooltips="1" connect="1" arrows="1" fold="1" page="1" pageScale="1" pageWidth="827" pageHeight="1169" math="0" shadow="0">
      <root>
        <mxCell id="WIyWlLk6GJQsqaUBKTNV-0" />
        <mxCell id="WIyWlLk6GJQsqaUBKTNV-1" parent="WIyWlLk6GJQsqaUBKTNV-0" />
        <mxCell id="MYqOvBCMYpxo-4ECaS3--8" value="" style="rounded=0;html=1;jettySize=auto;orthogonalLoop=1;fontSize=15;endArrow=blockThin;endFill=1;strokeWidth=3;shadow=0;labelBackgroundColor=none;edgeStyle=orthogonalEdgeStyle;curved=0;entryX=0.5;entryY=0;entryDx=0;entryDy=0;" parent="WIyWlLk6GJQsqaUBKTNV-1" source="MYqOvBCMYpxo-4ECaS3--9" target="sHfo32fZNC-mHXl1emih-2" edge="1">
          <mxGeometry relative="1" as="geometry">
            <mxPoint x="295" y="-45" as="targetPoint" />
          </mxGeometry>
        </mxCell>
        <mxCell id="MYqOvBCMYpxo-4ECaS3--9" value="&lt;p align=&quot;center&quot;&gt;I am planning to make my training&amp;nbsp;material FAIR&lt;/p&gt;" style="rounded=1;whiteSpace=wrap;html=1;fontSize=15;glass=0;strokeWidth=1;shadow=0;fillColor=#dae8fc;strokeColor=#6c8ebf;align=center;" parent="WIyWlLk6GJQsqaUBKTNV-1" vertex="1">
          <mxGeometry x="202.5" y="-170" width="175" height="80" as="geometry" />
        </mxCell>
        <mxCell id="MYqOvBCMYpxo-4ECaS3--10" value="&lt;font color=&quot;#009900&quot;&gt;&lt;b&gt;Yes&lt;/b&gt;&lt;/font&gt;" style="rounded=0;html=1;jettySize=auto;orthogonalLoop=1;fontSize=15;endArrow=block;endFill=0;endSize=6;strokeWidth=2;shadow=0;labelBackgroundColor=none;edgeStyle=orthogonalEdgeStyle;strokeColor=#398e2e;entryX=0;entryY=0.5;entryDx=0;entryDy=0;" parent="WIyWlLk6GJQsqaUBKTNV-1" target="MYqOvBCMYpxo-4ECaS3--14" edge="1">
          <mxGeometry x="0.0062" y="20" relative="1" as="geometry">
            <mxPoint as="offset" />
            <mxPoint x="480" y="220" as="targetPoint" />
            <mxPoint x="390" y="50" as="sourcePoint" />
          </mxGeometry>
        </mxCell>
        <mxCell id="MYqOvBCMYpxo-4ECaS3--14" value="I recorded a video of the&amp;nbsp;&lt;div&gt;course as part of the training material&lt;/div&gt;" style="rhombus;whiteSpace=wrap;html=1;shadow=0;fontFamily=Helvetica;fontSize=15;align=center;strokeWidth=1;spacing=6;spacingTop=-4;fillColor=#d5e8d4;strokeColor=#82b366;" parent="WIyWlLk6GJQsqaUBKTNV-1" vertex="1">
          <mxGeometry x="470" y="-45" width="190" height="190" as="geometry" />
        </mxCell>
        <mxCell id="JqK_AGXCbZ9T-9h9DLJX-0" value="&lt;font color=&quot;#009900&quot;&gt;&lt;b&gt;Yes&lt;/b&gt;&lt;/font&gt;" style="rounded=0;html=1;jettySize=auto;orthogonalLoop=1;fontSize=15;endArrow=block;endFill=0;endSize=6;strokeWidth=2;shadow=0;labelBackgroundColor=none;edgeStyle=orthogonalEdgeStyle;strokeColor=#398e2e;exitX=0.5;exitY=0;exitDx=0;exitDy=0;" parent="WIyWlLk6GJQsqaUBKTNV-1" source="MYqOvBCMYpxo-4ECaS3--14" target="iMHzxxL7FjKLbcnllSLB-1" edge="1">
          <mxGeometry x="0.0022" y="20" relative="1" as="geometry">
            <mxPoint as="offset" />
            <mxPoint x="730" y="-190" as="targetPoint" />
            <mxPoint x="780" y="49.5" as="sourcePoint" />
          </mxGeometry>
        </mxCell>
        <mxCell id="JqK_AGXCbZ9T-9h9DLJX-1" value="I use git to version control the materials" style="rhombus;whiteSpace=wrap;html=1;shadow=0;fontFamily=Helvetica;fontSize=15;align=center;strokeWidth=1;spacing=6;spacingTop=-4;fillColor=#d5e8d4;strokeColor=#82b366;" parent="WIyWlLk6GJQsqaUBKTNV-1" vertex="1">
          <mxGeometry x="760" y="-45" width="190" height="190" as="geometry" />
        </mxCell>
        <mxCell id="JqK_AGXCbZ9T-9h9DLJX-2" value="&lt;font color=&quot;#009900&quot;&gt;&lt;b&gt;Yes&lt;/b&gt;&lt;/font&gt;" style="rounded=0;html=1;jettySize=auto;orthogonalLoop=1;fontSize=15;endArrow=block;endFill=0;endSize=6;strokeWidth=2;shadow=0;labelBackgroundColor=none;edgeStyle=orthogonalEdgeStyle;strokeColor=#398e2e;entryX=0.5;entryY=0;entryDx=0;entryDy=0;exitX=1;exitY=0.5;exitDx=0;exitDy=0;" parent="WIyWlLk6GJQsqaUBKTNV-1" source="JqK_AGXCbZ9T-9h9DLJX-1" target="JqK_AGXCbZ9T-9h9DLJX-5" edge="1">
          <mxGeometry x="0.0022" y="20" relative="1" as="geometry">
            <mxPoint as="offset" />
            <mxPoint x="1310" y="49.5" as="targetPoint" />
            <mxPoint x="1170" y="49.5" as="sourcePoint" />
          </mxGeometry>
        </mxCell>
        <mxCell id="JqK_AGXCbZ9T-9h9DLJX-5" value="&lt;span style=&quot;font-weight: 700;&quot;&gt;1. Versioning system&lt;/span&gt;" style="swimlane;fontStyle=0;childLayout=stackLayout;horizontal=1;startSize=40;horizontalStack=0;resizeParent=1;resizeParentMax=0;resizeLast=0;collapsible=1;marginBottom=0;whiteSpace=wrap;html=1;fillColor=#B3B3B3;fontSize=15;" parent="WIyWlLk6GJQsqaUBKTNV-1" vertex="1">
          <mxGeometry x="881" y="230" width="180" height="110" as="geometry" />
        </mxCell>
        <mxCell id="JqK_AGXCbZ9T-9h9DLJX-6" value="Use git to publish and collaborate on your material" style="text;strokeColor=none;fillColor=none;align=left;verticalAlign=middle;spacingLeft=4;spacingRight=4;overflow=hidden;points=[[0,0.5],[1,0.5]];portConstraint=eastwest;rotatable=0;whiteSpace=wrap;html=1;fontSize=15;" parent="JqK_AGXCbZ9T-9h9DLJX-5" vertex="1">
          <mxGeometry y="40" width="180" height="70" as="geometry" />
        </mxCell>
        <mxCell id="5yuwwDbZiGcKTAIiWKAo-3" style="edgeStyle=orthogonalEdgeStyle;rounded=0;orthogonalLoop=1;jettySize=auto;html=1;exitX=0.5;exitY=1;exitDx=0;exitDy=0;entryX=0.5;entryY=0;entryDx=0;entryDy=0;fontSize=15;strokeWidth=3;endArrow=blockThin;endFill=1;" parent="WIyWlLk6GJQsqaUBKTNV-1" source="JqK_AGXCbZ9T-9h9DLJX-22" target="c0VgluleApERwFTGEEkZ-1" edge="1">
          <mxGeometry relative="1" as="geometry" />
        </mxCell>
        <mxCell id="JqK_AGXCbZ9T-9h9DLJX-22" value="&lt;span style=&quot;font-weight: 700;&quot;&gt;4. License&lt;/span&gt;" style="swimlane;fontStyle=0;childLayout=stackLayout;horizontal=1;startSize=40;horizontalStack=0;resizeParent=1;resizeParentMax=0;resizeLast=0;collapsible=1;marginBottom=0;whiteSpace=wrap;html=1;fillColor=#B3B3B3;fontSize=15;" parent="WIyWlLk6GJQsqaUBKTNV-1" vertex="1">
          <mxGeometry x="547.5" y="395" width="180" height="110" as="geometry" />
        </mxCell>
        <mxCell id="JqK_AGXCbZ9T-9h9DLJX-23" value="&lt;p style=&quot;margin-top: 0pt; margin-bottom: 0pt; margin-left: 0in; direction: ltr; unicode-bidi: embed; word-break: normal;&quot;&gt;&lt;font face=&quot;Helvetica&quot;&gt;&lt;span&gt;Choose and assign an appropiate license, e.g. CC-BY-4.0&lt;/span&gt;&lt;/font&gt;&lt;/p&gt;" style="text;strokeColor=none;fillColor=none;align=left;verticalAlign=middle;spacingLeft=4;spacingRight=4;overflow=hidden;points=[[0,0.5],[1,0.5]];portConstraint=eastwest;rotatable=0;whiteSpace=wrap;html=1;fontSize=15;" parent="JqK_AGXCbZ9T-9h9DLJX-22" vertex="1">
          <mxGeometry y="40" width="180" height="70" as="geometry" />
        </mxCell>
        <mxCell id="trNDSJ3Ft7eA7PvFKsts-0" value="&lt;span style=&quot;font-weight: 700;&quot;&gt;5. Metadata&lt;/span&gt;" style="swimlane;fontStyle=0;childLayout=stackLayout;horizontal=1;startSize=40;horizontalStack=0;resizeParent=1;resizeParentMax=0;resizeLast=0;collapsible=1;marginBottom=0;whiteSpace=wrap;html=1;fillColor=#B3B3B3;fontSize=15;" parent="WIyWlLk6GJQsqaUBKTNV-1" vertex="1">
          <mxGeometry x="200" y="230" width="180" height="110" as="geometry" />
        </mxCell>
        <mxCell id="trNDSJ3Ft7eA7PvFKsts-1" value="&lt;p style=&quot;margin-top: 0pt; margin-bottom: 0pt; margin-left: 0in; direction: ltr; unicode-bidi: embed; word-break: normal;&quot;&gt;Validate the materials are described with rich and standardized metadata. &lt;font&gt;&lt;span&gt;&lt;br&gt;&lt;/span&gt;&lt;/font&gt;&lt;/p&gt;" style="text;strokeColor=none;fillColor=none;align=left;verticalAlign=middle;spacingLeft=4;spacingRight=4;overflow=hidden;points=[[0,0.5],[1,0.5]];portConstraint=eastwest;rotatable=0;whiteSpace=wrap;html=1;fontSize=15;" parent="trNDSJ3Ft7eA7PvFKsts-0" vertex="1">
          <mxGeometry y="40" width="180" height="70" as="geometry" />
        </mxCell>
        <mxCell id="5yuwwDbZiGcKTAIiWKAo-5" style="edgeStyle=orthogonalEdgeStyle;rounded=0;orthogonalLoop=1;jettySize=auto;html=1;exitX=0;exitY=0.25;exitDx=0;exitDy=0;entryX=1;entryY=0.25;entryDx=0;entryDy=0;fontSize=15;strokeWidth=3;curved=0;endArrow=blockThin;endFill=1;" parent="WIyWlLk6GJQsqaUBKTNV-1" source="c0VgluleApERwFTGEEkZ-1" target="trNDSJ3Ft7eA7PvFKsts-0" edge="1">
          <mxGeometry relative="1" as="geometry" />
        </mxCell>
        <mxCell id="c0VgluleApERwFTGEEkZ-1" value="&lt;span style=&quot;font-weight: 700;&quot;&gt;2. Zenodo&lt;/span&gt;" style="swimlane;fontStyle=0;childLayout=stackLayout;horizontal=1;startSize=40;horizontalStack=0;resizeParent=1;resizeParentMax=0;resizeLast=0;collapsible=1;marginBottom=0;whiteSpace=wrap;html=1;fillColor=#B3B3B3;fontSize=15;" parent="WIyWlLk6GJQsqaUBKTNV-1" vertex="1">
          <mxGeometry x="547.5" y="570" width="180" height="110" as="geometry" />
        </mxCell>
        <mxCell id="c0VgluleApERwFTGEEkZ-2" value="&lt;p style=&quot;margin-top: 0pt; margin-bottom: 0pt; margin-left: 0in; direction: ltr; unicode-bidi: embed; word-break: normal;&quot;&gt;Publish your materials on Zenodo for long term storage&lt;/p&gt;&lt;div&gt;&lt;br&gt;&lt;/div&gt;" style="text;strokeColor=none;fillColor=none;align=left;verticalAlign=middle;spacingLeft=4;spacingRight=4;overflow=hidden;points=[[0,0.5],[1,0.5]];portConstraint=eastwest;rotatable=0;whiteSpace=wrap;html=1;fontSize=15;" parent="c0VgluleApERwFTGEEkZ-1" vertex="1">
          <mxGeometry y="40" width="180" height="70" as="geometry" />
        </mxCell>
        <mxCell id="c0VgluleApERwFTGEEkZ-4" value="&lt;span style=&quot;font-weight: 700;&quot;&gt;6. Persistent identifier&lt;/span&gt;" style="swimlane;fontStyle=0;childLayout=stackLayout;horizontal=1;startSize=40;horizontalStack=0;resizeParent=1;resizeParentMax=0;resizeLast=0;collapsible=1;marginBottom=0;whiteSpace=wrap;html=1;fillColor=#B3B3B3;fontSize=15;" parent="WIyWlLk6GJQsqaUBKTNV-1" vertex="1">
          <mxGeometry x="200" y="395" width="180" height="110" as="geometry" />
        </mxCell>
        <mxCell id="c0VgluleApERwFTGEEkZ-5" value="&lt;p style=&quot;margin-top: 0pt; margin-bottom: 0pt; margin-left: 0in; direction: ltr; unicode-bidi: embed; word-break: normal;&quot;&gt;Validate your material/metadata has a PID e.g. has a DOI&lt;/p&gt;" style="text;strokeColor=none;fillColor=none;align=left;verticalAlign=middle;spacingLeft=4;spacingRight=4;overflow=hidden;points=[[0,0.5],[1,0.5]];portConstraint=eastwest;rotatable=0;whiteSpace=wrap;html=1;fontSize=15;" parent="c0VgluleApERwFTGEEkZ-4" vertex="1">
          <mxGeometry y="40" width="180" height="70" as="geometry" />
        </mxCell>
        <mxCell id="5yuwwDbZiGcKTAIiWKAo-7" style="edgeStyle=orthogonalEdgeStyle;rounded=0;orthogonalLoop=1;jettySize=auto;html=1;exitX=0.5;exitY=1;exitDx=0;exitDy=0;entryX=0.5;entryY=0;entryDx=0;entryDy=0;fontSize=15;strokeWidth=3;curved=0;endArrow=blockThin;endFill=1;" parent="WIyWlLk6GJQsqaUBKTNV-1" source="c0VgluleApERwFTGEEkZ-8" target="c0VgluleApERwFTGEEkZ-19" edge="1">
          <mxGeometry relative="1" as="geometry" />
        </mxCell>
        <mxCell id="c0VgluleApERwFTGEEkZ-8" value="&lt;span style=&quot;font-weight: 700;&quot;&gt;9. TeSS&lt;/span&gt;" style="swimlane;fontStyle=0;childLayout=stackLayout;horizontal=1;startSize=40;horizontalStack=0;resizeParent=1;resizeParentMax=0;resizeLast=0;collapsible=1;marginBottom=0;whiteSpace=wrap;html=1;fillColor=#B3B3B3;fontSize=15;" parent="WIyWlLk6GJQsqaUBKTNV-1" vertex="1">
          <mxGeometry x="200" y="570" width="180" height="110" as="geometry" />
        </mxCell>
        <mxCell id="c0VgluleApERwFTGEEkZ-9" value="&lt;p style=&quot;margin-top: 0pt; margin-bottom: 0pt; margin-left: 0in; direction: ltr; unicode-bidi: embed; word-break: normal;&quot;&gt;&lt;span&gt;Register the metadata in ELIXIR&amp;nbsp; &lt;a href=&quot;https://tess.elixir-europe.org/materials&quot;&gt;TeSS&lt;/a&gt;&lt;/span&gt;&lt;span style=&quot;background-color: initial;&quot;&gt;.&lt;/span&gt;&lt;/p&gt;" style="text;strokeColor=none;fillColor=none;align=left;verticalAlign=middle;spacingLeft=4;spacingRight=4;overflow=hidden;points=[[0,0.5],[1,0.5]];portConstraint=eastwest;rotatable=0;whiteSpace=wrap;html=1;fontSize=15;" parent="c0VgluleApERwFTGEEkZ-8" vertex="1">
          <mxGeometry y="40" width="180" height="70" as="geometry" />
        </mxCell>
        <mxCell id="iMHzxxL7FjKLbcnllSLB-19" value="" style="edgeStyle=orthogonalEdgeStyle;rounded=0;orthogonalLoop=1;jettySize=auto;html=1;entryX=0.5;entryY=0;entryDx=0;entryDy=0;strokeWidth=3;exitX=0.5;exitY=1;exitDx=0;exitDy=0;fontSize=15;curved=0;endArrow=blockThin;endFill=1;" parent="WIyWlLk6GJQsqaUBKTNV-1" source="JqK_AGXCbZ9T-9h9DLJX-5" target="c0VgluleApERwFTGEEkZ-15" edge="1">
          <mxGeometry relative="1" as="geometry">
            <mxPoint x="281" y="620" as="sourcePoint" />
          </mxGeometry>
        </mxCell>
        <mxCell id="c0VgluleApERwFTGEEkZ-15" value="&lt;b&gt;8. Glittr.org&lt;/b&gt;" style="swimlane;fontStyle=0;childLayout=stackLayout;horizontal=1;startSize=40;horizontalStack=0;resizeParent=1;resizeParentMax=0;resizeLast=0;collapsible=1;marginBottom=0;whiteSpace=wrap;html=1;fillColor=#B3B3B3;fontSize=15;" parent="WIyWlLk6GJQsqaUBKTNV-1" vertex="1">
          <mxGeometry x="881" y="395" width="180" height="110" as="geometry" />
        </mxCell>
        <mxCell id="c0VgluleApERwFTGEEkZ-16" value="&lt;p style=&quot;margin-top: 0pt; margin-bottom: 0pt; margin-left: 0in; direction: ltr; unicode-bidi: embed; word-break: normal;&quot;&gt;&lt;span&gt;Register the materials in &lt;a href=&quot;https://glittr.org/contribute&quot;&gt;Glittr&lt;/a&gt; &lt;br&gt;&lt;/span&gt;&lt;/p&gt;" style="text;strokeColor=none;fillColor=none;align=left;verticalAlign=middle;spacingLeft=4;spacingRight=4;overflow=hidden;points=[[0,0.5],[1,0.5]];portConstraint=eastwest;rotatable=0;whiteSpace=wrap;html=1;fontSize=15;" parent="c0VgluleApERwFTGEEkZ-15" vertex="1">
          <mxGeometry y="40" width="180" height="70" as="geometry" />
        </mxCell>
        <mxCell id="c0VgluleApERwFTGEEkZ-19" value="&lt;span style=&quot;font-weight: 700;&quot;&gt;10. Communication&lt;/span&gt;" style="swimlane;fontStyle=0;childLayout=stackLayout;horizontal=1;startSize=40;horizontalStack=0;resizeParent=1;resizeParentMax=0;resizeLast=0;collapsible=1;marginBottom=0;whiteSpace=wrap;html=1;fillColor=#B3B3B3;fontSize=15;" parent="WIyWlLk6GJQsqaUBKTNV-1" vertex="1">
          <mxGeometry x="200" y="750" width="180" height="110" as="geometry" />
        </mxCell>
        <mxCell id="c0VgluleApERwFTGEEkZ-20" value="&lt;p style=&quot;margin-top: 0pt; margin-bottom: 0pt; margin-left: 0in; direction: ltr; unicode-bidi: embed; word-break: normal;&quot;&gt;Promote your training materials so others can reuse!&lt;/p&gt;" style="text;strokeColor=none;fillColor=none;align=left;verticalAlign=middle;spacingLeft=4;spacingRight=4;overflow=hidden;points=[[0,0.5],[1,0.5]];portConstraint=eastwest;rotatable=0;whiteSpace=wrap;html=1;fontSize=15;" parent="c0VgluleApERwFTGEEkZ-19" vertex="1">
          <mxGeometry y="40" width="180" height="70" as="geometry" />
        </mxCell>
        <mxCell id="ZT808I5Ox4Ml_YAyH20e-0" value="" style="edgeStyle=orthogonalEdgeStyle;rounded=0;orthogonalLoop=1;jettySize=auto;html=1;exitX=1;exitY=0.5;exitDx=0;exitDy=0;" edge="1" parent="WIyWlLk6GJQsqaUBKTNV-1" source="sHfo32fZNC-mHXl1emih-2" target="MYqOvBCMYpxo-4ECaS3--14">
          <mxGeometry relative="1" as="geometry" />
        </mxCell>
        <mxCell id="sHfo32fZNC-mHXl1emih-2" value="The material itself is open" style="rhombus;whiteSpace=wrap;html=1;shadow=0;fontFamily=Helvetica;fontSize=15;align=center;strokeWidth=1;spacing=6;spacingTop=-4;fillColor=#d5e8d4;strokeColor=#82b366;" parent="WIyWlLk6GJQsqaUBKTNV-1" vertex="1">
          <mxGeometry x="195" y="-45" width="190" height="190" as="geometry" />
        </mxCell>
        <mxCell id="sHfo32fZNC-mHXl1emih-4" value="&lt;b&gt;&lt;font color=&quot;#ff8000&quot;&gt;No&lt;/font&gt;&lt;/b&gt;" style="rounded=0;html=1;jettySize=auto;orthogonalLoop=1;fontSize=15;endArrow=block;endFill=0;endSize=6;strokeWidth=2;shadow=0;labelBackgroundColor=none;edgeStyle=orthogonalEdgeStyle;strokeColor=#FF8000;entryX=0.5;entryY=0;entryDx=0;entryDy=0;exitX=0.5;exitY=1;exitDx=0;exitDy=0;" parent="WIyWlLk6GJQsqaUBKTNV-1" target="trNDSJ3Ft7eA7PvFKsts-0" edge="1" source="sHfo32fZNC-mHXl1emih-2">
          <mxGeometry x="0.0104" y="20" relative="1" as="geometry">
            <mxPoint as="offset" />
            <mxPoint x="294.57" y="250" as="targetPoint" />
            <mxPoint x="294.57" y="145" as="sourcePoint" />
          </mxGeometry>
        </mxCell>
        <mxCell id="sHfo32fZNC-mHXl1emih-7" value="&lt;b&gt;&lt;font color=&quot;#ff8000&quot;&gt;No&lt;/font&gt;&lt;/b&gt;" style="rounded=0;html=1;jettySize=auto;orthogonalLoop=1;fontSize=15;endArrow=block;endFill=0;endSize=6;strokeWidth=2;shadow=0;labelBackgroundColor=none;edgeStyle=orthogonalEdgeStyle;strokeColor=#FF8000;entryX=0;entryY=0.5;entryDx=0;entryDy=0;exitX=1;exitY=0.5;exitDx=0;exitDy=0;" parent="WIyWlLk6GJQsqaUBKTNV-1" source="MYqOvBCMYpxo-4ECaS3--14" target="JqK_AGXCbZ9T-9h9DLJX-1" edge="1">
          <mxGeometry x="0.0104" y="20" relative="1" as="geometry">
            <mxPoint as="offset" />
            <mxPoint x="1020" y="150" as="targetPoint" />
            <mxPoint x="654.5" y="145" as="sourcePoint" />
          </mxGeometry>
        </mxCell>
        <mxCell id="sHfo32fZNC-mHXl1emih-9" value="&lt;b&gt;&lt;font color=&quot;#ff8000&quot;&gt;No&lt;/font&gt;&lt;/b&gt;" style="rounded=0;html=1;jettySize=auto;orthogonalLoop=1;fontSize=15;endArrow=block;endFill=0;endSize=6;strokeWidth=2;shadow=0;labelBackgroundColor=none;edgeStyle=orthogonalEdgeStyle;strokeColor=#FF8000;exitX=0.5;exitY=1;exitDx=0;exitDy=0;entryX=0.5;entryY=0;entryDx=0;entryDy=0;" parent="WIyWlLk6GJQsqaUBKTNV-1" source="JqK_AGXCbZ9T-9h9DLJX-1" target="5yuwwDbZiGcKTAIiWKAo-8" edge="1">
          <mxGeometry x="0.0104" y="20" relative="1" as="geometry">
            <mxPoint as="offset" />
            <mxPoint x="975" y="160" as="targetPoint" />
            <mxPoint x="1044.5" y="150" as="sourcePoint" />
            <Array as="points" />
          </mxGeometry>
        </mxCell>
        <mxCell id="iMHzxxL7FjKLbcnllSLB-0" value="&lt;b&gt;7. Video materials&lt;/b&gt;" style="swimlane;fontStyle=0;childLayout=stackLayout;horizontal=1;startSize=40;horizontalStack=0;resizeParent=1;resizeParentMax=0;resizeLast=0;collapsible=1;marginBottom=0;whiteSpace=wrap;html=1;fillColor=#B3B3B3;fontSize=15;" parent="WIyWlLk6GJQsqaUBKTNV-1" vertex="1">
          <mxGeometry x="620" y="-166" width="180" height="110" as="geometry" />
        </mxCell>
        <mxCell id="iMHzxxL7FjKLbcnllSLB-1" value="Publish your videos on an accessible platform" style="text;strokeColor=none;fillColor=none;align=left;verticalAlign=middle;spacingLeft=4;spacingRight=4;overflow=hidden;points=[[0,0.5],[1,0.5]];portConstraint=eastwest;rotatable=0;whiteSpace=wrap;html=1;fontSize=15;" parent="iMHzxxL7FjKLbcnllSLB-0" vertex="1">
          <mxGeometry y="40" width="180" height="70" as="geometry" />
        </mxCell>
        <mxCell id="iMHzxxL7FjKLbcnllSLB-2" style="edgeStyle=orthogonalEdgeStyle;rounded=0;orthogonalLoop=1;jettySize=auto;html=1;exitX=1;exitY=0.5;exitDx=0;exitDy=0;entryX=0.5;entryY=0;entryDx=0;entryDy=0;strokeWidth=3;fontSize=15;curved=0;endArrow=blockThin;endFill=1;" parent="WIyWlLk6GJQsqaUBKTNV-1" source="iMHzxxL7FjKLbcnllSLB-1" target="JqK_AGXCbZ9T-9h9DLJX-1" edge="1">
          <mxGeometry relative="1" as="geometry">
            <mxPoint x="1410" y="240" as="targetPoint" />
            <mxPoint x="1410" y="143" as="sourcePoint" />
          </mxGeometry>
        </mxCell>
        <mxCell id="5yuwwDbZiGcKTAIiWKAo-1" value="" style="edgeStyle=orthogonalEdgeStyle;rounded=0;orthogonalLoop=1;jettySize=auto;html=1;entryX=1;entryY=0.25;entryDx=0;entryDy=0;strokeWidth=3;exitX=0;exitY=0.25;exitDx=0;exitDy=0;fontSize=15;curved=0;endArrow=blockThin;endFill=1;" parent="WIyWlLk6GJQsqaUBKTNV-1" source="c0VgluleApERwFTGEEkZ-15" target="JqK_AGXCbZ9T-9h9DLJX-22" edge="1">
          <mxGeometry relative="1" as="geometry">
            <mxPoint x="700" y="499" as="sourcePoint" />
            <mxPoint x="890" y="515" as="targetPoint" />
          </mxGeometry>
        </mxCell>
        <mxCell id="5yuwwDbZiGcKTAIiWKAo-8" value="&lt;b&gt;3. Accessibility&lt;/b&gt;" style="swimlane;fontStyle=0;childLayout=stackLayout;horizontal=1;startSize=40;horizontalStack=0;resizeParent=1;resizeParentMax=0;resizeLast=0;collapsible=1;marginBottom=0;whiteSpace=wrap;html=1;fillColor=#B3B3B3;fontSize=15;" parent="WIyWlLk6GJQsqaUBKTNV-1" vertex="1">
          <mxGeometry x="547.5" y="230" width="180" height="110" as="geometry" />
        </mxCell>
        <mxCell id="5yuwwDbZiGcKTAIiWKAo-9" value="&lt;p style=&quot;margin-top: 0pt; margin-bottom: 0pt; margin-left: 0in; direction: ltr; unicode-bidi: embed; word-break: normal;&quot;&gt;&lt;font face=&quot;Helvetica&quot;&gt;Publish material in a platform and format that is accessible &lt;br&gt;&lt;/font&gt;&lt;/p&gt;" style="text;strokeColor=none;fillColor=none;align=left;verticalAlign=middle;spacingLeft=4;spacingRight=4;overflow=hidden;points=[[0,0.5],[1,0.5]];portConstraint=eastwest;rotatable=0;whiteSpace=wrap;html=1;fontSize=15;" parent="5yuwwDbZiGcKTAIiWKAo-8" vertex="1">
          <mxGeometry y="40" width="180" height="70" as="geometry" />
        </mxCell>
        <mxCell id="5yuwwDbZiGcKTAIiWKAo-14" value="" style="edgeStyle=orthogonalEdgeStyle;rounded=0;orthogonalLoop=1;jettySize=auto;html=1;entryX=0.5;entryY=0;entryDx=0;entryDy=0;strokeWidth=3;exitX=0.496;exitY=1;exitDx=0;exitDy=0;fontSize=15;curved=0;endArrow=blockThin;endFill=1;exitPerimeter=0;" parent="WIyWlLk6GJQsqaUBKTNV-1" source="trNDSJ3Ft7eA7PvFKsts-1" target="c0VgluleApERwFTGEEkZ-4" edge="1">
          <mxGeometry relative="1" as="geometry">
            <mxPoint x="645" y="160" as="sourcePoint" />
            <mxPoint x="645" y="240" as="targetPoint" />
          </mxGeometry>
        </mxCell>
        <mxCell id="5yuwwDbZiGcKTAIiWKAo-15" value="" style="edgeStyle=orthogonalEdgeStyle;rounded=0;orthogonalLoop=1;jettySize=auto;html=1;entryX=0.5;entryY=0;entryDx=0;entryDy=0;strokeWidth=3;fontSize=15;curved=0;endArrow=blockThin;endFill=1;exitX=0.5;exitY=1;exitDx=0;exitDy=0;" parent="WIyWlLk6GJQsqaUBKTNV-1" source="c0VgluleApERwFTGEEkZ-4" target="c0VgluleApERwFTGEEkZ-8" edge="1">
          <mxGeometry relative="1" as="geometry">
            <mxPoint x="340" y="538" as="sourcePoint" />
            <mxPoint x="645" y="240" as="targetPoint" />
          </mxGeometry>
        </mxCell>
        <mxCell id="5yuwwDbZiGcKTAIiWKAo-17" value="" style="edgeStyle=orthogonalEdgeStyle;rounded=0;orthogonalLoop=1;jettySize=auto;html=1;entryX=0.5;entryY=0;entryDx=0;entryDy=0;strokeWidth=3;fontSize=15;curved=0;endArrow=blockThin;endFill=1;exitX=0.5;exitY=1;exitDx=0;exitDy=0;" parent="WIyWlLk6GJQsqaUBKTNV-1" source="5yuwwDbZiGcKTAIiWKAo-8" target="JqK_AGXCbZ9T-9h9DLJX-22" edge="1">
          <mxGeometry relative="1" as="geometry">
            <mxPoint x="680" y="370" as="sourcePoint" />
            <mxPoint x="272.5" y="605" as="targetPoint" />
          </mxGeometry>
        </mxCell>
      </root>
    </mxGraphModel>
  </diagram>
</mxfile>
